<svg version="1.1" id="Layer_1" xmlns="http://www.w3.org/2000/svg" xmlns:xlink="http://www.w3.org/1999/xlink" x="0px" y="0px"
	 width="100%" viewBox="0 0 496 496" enable-background="new 0 0 496 496" xml:space="preserve">
<path fill="#000000" opacity="1.000000" stroke="none" 
	d="
M223.999878,218.356781 
	C193.343552,218.350037 163.187149,218.309387 133.031021,218.381454 
	C129.481720,218.389938 127.366913,217.783981 127.568344,213.495651 
	C127.718781,210.293060 128.823807,208.862411 131.984695,209.005234 
	C132.815765,209.042786 133.650436,208.995316 134.483459,208.995285 
	C212.623276,208.993347 290.763092,208.979233 368.902863,209.050766 
	C371.377563,209.053024 374.880798,207.622208 375.465240,212.214050 
	C376.113098,217.304108 375.226318,218.337601 369.450226,218.339005 
	C321.133453,218.350800 272.816650,218.352142 223.999878,218.356781 
z"/>
<path fill="#000000" opacity="1.000000" stroke="none" 
	d="
M177.989990,289.264954 
	C162.689529,289.271545 147.886261,289.211945 133.084442,289.332001 
	C129.507492,289.360962 127.574440,288.633606 127.555023,284.422516 
	C127.534691,280.015320 129.849091,279.677185 133.231323,279.690125 
	C151.360245,279.759460 169.489746,279.765503 187.618576,279.684662 
	C190.968323,279.669739 192.997269,280.447601 193.028763,284.327301 
	C193.061371,288.344238 191.170074,289.559326 187.466370,289.306396 
	C184.486435,289.102875 181.481537,289.264893 177.989990,289.264954 
z"/>
<path fill="#000000" opacity="1.000000" stroke="none" 
	d="
M321.035248,279.727356 
	C337.518341,279.725037 353.507904,279.734497 369.497437,279.712860 
	C372.761414,279.708435 375.704926,279.323059 375.656586,284.391937 
	C375.612244,289.039825 373.439636,289.354919 369.784241,289.328888 
	C352.130005,289.203064 334.474365,289.261078 316.819275,289.284698 
	C313.538818,289.289093 310.616730,289.599792 310.539551,284.629578 
	C310.457520,279.348755 313.585419,279.632721 317.044067,279.720276 
	C318.209259,279.749817 319.375763,279.727020 321.035248,279.727356 
z"/>
<path fill="#000000" opacity="1.000000" stroke="none" 
	d="
M187.590179,257.538818 
	C182.812988,257.925049 181.215561,260.484528 181.306992,264.609344 
	C181.342270,266.201385 181.485428,268.399506 179.047516,268.240875 
	C176.840073,268.097290 176.664627,265.989777 176.946747,264.381927 
	C178.080536,257.920135 177.437576,251.412842 177.702194,244.932571 
	C177.768448,243.309738 177.648956,241.112442 180.003479,241.308914 
	C182.095871,241.483475 182.025803,243.567993 182.117050,245.250046 
	C182.259125,247.868744 181.251465,250.503220 182.182602,253.329407 
	C185.902328,254.425278 189.370071,252.588974 192.934540,252.317581 
	C194.704193,252.182846 194.643692,250.206177 194.974213,248.728226 
	C195.553879,246.136246 194.620453,241.341919 197.584763,241.607269 
	C201.708527,241.976395 198.998505,246.513916 199.224411,249.131180 
	C199.638290,253.926437 199.340652,258.785675 199.283600,263.617554 
	C199.264618,265.225739 199.632080,267.500397 197.430786,267.639801 
	C194.941040,267.797516 194.689423,265.364410 194.862076,263.615662 
	C195.390762,258.260864 193.251495,256.206024 187.590179,257.538818 
z"/>
<path fill="#000000" opacity="1.000000" stroke="none" 
	d="
M302.648438,256.736145 
	C302.664551,252.271805 302.656281,248.276871 302.705750,244.282623 
	C302.722870,242.902725 303.008850,241.376617 304.650299,241.264435 
	C306.616699,241.130020 306.957520,242.776001 307.133759,244.334152 
	C307.171021,244.663666 307.151764,244.999237 307.167175,245.331635 
	C307.559418,253.816162 307.539032,253.613739 315.706268,252.784302 
	C319.072357,252.442459 319.754211,250.894470 319.960571,247.999054 
	C320.135254,245.547089 319.571411,241.403351 322.880890,241.628525 
	C326.439789,241.870697 324.162140,245.716492 324.256836,247.891876 
	C324.495361,253.372559 324.325195,258.872467 324.260803,264.363983 
	C324.243439,265.845428 324.248688,267.702972 322.196930,267.700714 
	C320.310516,267.698639 320.044556,265.943390 319.811920,264.435974 
	C319.461212,262.163452 320.122498,259.785492 319.141327,257.487305 
	C317.022644,256.481171 314.882965,257.341034 312.806732,257.504578 
	C308.676544,257.829865 305.950684,259.642517 306.281281,264.403198 
	C306.389923,265.966980 306.596252,268.217102 304.229523,268.225220 
	C301.636444,268.234100 301.754730,265.953522 301.869934,264.132690 
	C302.016541,261.816650 302.377960,259.514160 302.648438,256.736145 
z"/>
<path fill="#000000" opacity="1.000000" stroke="none" 
	d="
M217.681122,239.779114 
	C219.234131,240.148071 220.368591,240.419312 221.459656,240.811340 
	C222.701859,241.257660 223.390900,242.171432 222.982849,243.512360 
	C222.582153,244.829117 221.472198,245.222305 220.212097,245.076691 
	C219.061356,244.943726 217.934616,244.597931 216.783493,244.474304 
	C211.257828,243.880951 209.902756,245.246231 210.147461,251.336685 
	C213.018402,252.179810 215.998276,251.476212 218.933746,251.584274 
	C220.264496,251.633240 221.792328,251.578735 221.953262,253.399460 
	C222.107101,255.139786 220.648666,255.652008 219.364304,255.865631 
	C217.408524,256.190918 215.402557,256.361084 213.420029,256.344482 
	C210.467972,256.319794 209.272446,257.603333 209.274170,260.570221 
	C209.275909,263.569336 210.506119,264.820251 213.465439,264.678619 
	C215.452332,264.583527 217.451355,264.688080 219.442734,264.762512 
	C220.489990,264.801605 221.491974,265.173126 221.737503,266.301971 
	C222.048248,267.730560 220.973877,268.384583 219.890030,268.875031 
	C211.830429,272.521942 204.906509,267.925110 204.622055,259.090149 
	C204.455963,253.931229 206.251923,248.912079 205.292755,243.718033 
	C204.988312,242.069412 206.023651,240.849777 207.873672,240.749725 
	C211.016296,240.579803 214.031265,239.245300 217.681122,239.779114 
z"/>
<path fill="#000000" opacity="1.000000" stroke="none" 
	d="
M246.033035,266.728088 
	C245.403488,265.535492 245.076431,264.588165 244.598602,263.724304 
	C243.720139,262.136108 244.181015,259.229492 241.269318,259.546692 
	C238.706573,259.825836 235.838181,259.975067 234.611282,263.019897 
	C234.425110,263.481934 234.253540,263.959808 233.994675,264.380859 
	C233.087631,265.856079 232.561890,268.304199 230.136703,267.184052 
	C227.728989,266.071991 229.221649,264.057526 229.729736,262.406921 
	C231.816788,255.627014 236.355942,250.232452 240.013138,244.342926 
	C240.709473,243.221542 241.652206,242.072479 243.221985,242.481903 
	C244.718597,242.872269 245.020157,244.209000 245.317200,245.563385 
	C246.665146,251.709534 248.114700,257.833496 249.449951,263.982330 
	C250.014328,266.581268 249.757065,268.556854 246.033035,266.728088 
z"/>
<path fill="#000000" opacity="1.000000" stroke="none" 
	d="
M291.691864,241.711456 
	C292.978058,241.758957 293.816559,241.730499 294.632294,241.853378 
	C296.281433,242.101761 298.310699,242.310257 298.134308,244.519226 
	C297.941284,246.936462 295.672424,246.469391 294.194153,246.304688 
	C289.124115,245.739822 287.836945,247.657822 288.898163,252.577133 
	C289.653778,256.079742 289.243134,259.841644 289.277405,263.488495 
	C289.291656,265.004700 289.140900,266.797791 287.226562,266.918365 
	C284.862915,267.067291 284.889465,265.031647 284.794159,263.386688 
	C284.554901,259.256195 284.400024,255.120804 284.164490,250.990021 
	C283.994812,248.014664 282.991638,245.973129 279.393463,246.128662 
	C277.765167,246.199051 275.798279,245.465515 276.111450,243.288132 
	C276.396881,241.303940 278.375397,241.722275 279.788574,241.701355 
	C283.602814,241.644852 287.418671,241.695724 291.691864,241.711456 
z"/>
<path fill="#000000" opacity="1.000000" stroke="none" 
	d="
M259.744812,262.490356 
	C262.128845,265.744324 264.766785,263.259247 267.276520,263.107300 
	C269.052673,262.999695 271.244568,261.924622 271.907776,264.361206 
	C272.570618,266.796539 270.199341,267.227417 268.519714,267.780823 
	C257.604034,271.377167 255.413116,269.795898 255.633667,258.652527 
	C255.725662,254.005203 255.680283,249.355255 255.757034,244.707504 
	C255.782837,243.144882 256.170624,241.488144 258.076294,241.470856 
	C260.087982,241.452621 260.284973,243.216415 260.255188,244.725708 
	C260.140717,250.528961 259.936523,256.330475 259.744812,262.490356 
z"/>
<path fill="#000000" opacity="1.000000" stroke="none" 
	d="
M248.899536,284.823151 
	C248.795670,282.459747 248.693848,280.503448 248.593933,278.583557 
	C255.227402,276.847107 257.053528,278.173645 256.406311,284.405090 
	C256.190826,286.479645 257.795807,287.705933 258.120087,289.585266 
	C255.347061,291.508270 254.618851,288.360840 252.820587,287.358276 
	C253.358841,291.033875 251.335205,290.697357 249.022461,290.052124 
	C247.979477,288.425964 249.229309,286.800354 248.899536,284.823151 
z"/>
<path fill="#000000" opacity="1.000000" stroke="none" 
	d="
M221.520569,289.533630 
	C218.797104,290.759247 216.380600,290.683624 213.677628,289.791931 
	C214.116516,286.036926 213.978500,282.280304 213.457642,278.251984 
	C217.339691,277.306274 220.763687,277.472626 223.012634,280.780029 
	C225.018524,283.730042 224.561249,286.789307 221.520569,289.533630 
M217.788361,287.751282 
	C220.255127,288.331909 220.457977,286.499237 220.623688,284.908600 
	C220.808960,283.130371 220.711182,281.325439 218.215302,281.031921 
	C216.688034,283.066986 217.370667,285.180664 217.788361,287.751282 
z"/>
<path fill="#000000" opacity="1.000000" stroke="none" 
	d="
M239.985291,278.581085 
	C243.411148,281.631989 243.680542,285.940674 245.553726,289.445862 
	C242.088593,292.174622 241.521133,288.360077 239.798126,286.966949 
	C238.180756,288.286102 238.027771,292.037903 234.451431,289.659790 
	C236.011658,285.970001 236.526154,281.717529 239.985291,278.581085 
z"/>
<path fill="#000000" opacity="1.000000" stroke="none" 
	d="
M269.306763,289.015320 
	C270.068237,285.342438 269.405640,282.045166 269.263062,278.782684 
	C274.695465,276.822723 275.989227,277.158630 277.211578,280.841797 
	C275.950775,282.270020 274.479675,279.525970 273.142395,281.166962 
	C272.560120,283.275574 275.770111,282.205505 275.752380,283.934692 
	C275.741760,285.828644 271.842987,285.042603 273.052307,287.813934 
	C274.732483,289.548920 275.991425,286.654938 277.576691,287.395691 
	C277.112427,291.139252 274.634430,291.737518 269.306763,289.015320 
z"/>
<path fill="#000000" opacity="1.000000" stroke="none" 
	d="
M281.050323,287.707336 
	C282.191498,286.558624 282.905426,288.000702 283.925629,287.767975 
	C284.444489,285.319122 281.806702,284.657318 281.149750,282.891907 
	C280.566528,281.324646 280.765289,279.975128 282.041107,278.845917 
	C283.439148,277.608490 285.075531,277.354065 286.633911,278.273071 
	C288.383270,279.304718 288.078461,280.542786 286.679047,281.842377 
	C285.625549,282.820709 286.623993,283.568878 287.264038,284.315369 
	C288.934845,286.264069 289.201324,288.564026 286.905457,289.800110 
	C284.827454,290.918823 282.023682,291.547852 281.050323,287.707336 
z"/>
<path fill="#000000" opacity="1.000000" stroke="none" 
	d="
M264.509094,283.072144 
	C264.849060,285.537720 265.178680,287.637482 265.506866,289.728271 
	C264.105713,290.887177 262.683777,290.277924 260.937347,290.096436 
	C261.963104,286.204346 261.594269,282.481110 261.204315,278.750244 
	C262.506470,277.436371 263.827271,277.630219 265.182861,278.404510 
	C265.976807,280.056274 264.329468,281.231689 264.509094,283.072144 
z"/>
<path fill="#000000" opacity="1.000000" stroke="none" 
	d="
M227.624176,283.971130 
	C227.490082,281.942474 227.359070,280.323547 227.228806,278.713837 
	C228.580917,277.526367 229.884293,277.535370 231.430054,278.697357 
	C230.492981,282.252808 229.523422,285.916534 231.580795,289.509735 
	C230.153320,290.887024 228.814148,290.263153 227.627258,289.941742 
	C227.627258,287.951874 227.627258,286.166351 227.624176,283.971130 
z"/>
</svg>